<svg xmlns="http://www.w3.org/2000/svg" xmlns:xlink="http://www.w3.org/1999/xlink" viewBox="0 0 507.69 365.82"><defs><style>.cls-1{fill:#fff;}.cls-2{isolation:isolate;}.cls-3{clip-path:url(#clip-path);}.cls-10,.cls-11,.cls-12,.cls-13,.cls-14,.cls-15,.cls-16,.cls-17,.cls-18,.cls-180,.cls-19,.cls-20,.cls-21,.cls-22,.cls-23,.cls-24,.cls-25,.cls-26,.cls-27,.cls-28,.cls-29,.cls-30,.cls-31,.cls-32,.cls-33,.cls-34,.cls-35,.cls-36,.cls-37,.cls-38,.cls-39,.cls-4,.cls-40,.cls-41,.cls-42,.cls-43,.cls-44,.cls-45,.cls-46,.cls-47,.cls-48,.cls-49,.cls-5,.cls-50,.cls-51,.cls-52,.cls-53,.cls-54,.cls-55,.cls-56,.cls-57,.cls-58,.cls-59,.cls-6,.cls-60,.cls-61,.cls-62,.cls-63,.cls-64,.cls-65,.cls-66,.cls-67,.cls-68,.cls-69,.cls-7,.cls-70,.cls-71,.cls-72,.cls-73,.cls-74,.cls-75,.cls-76,.cls-77,.cls-78,.cls-79,.cls-8,.cls-80,.cls-81,.cls-82,.cls-83,.cls-84,.cls-85,.cls-86,.cls-87,.cls-9{fill:#3b3b3b;mix-blend-mode:multiply;}.cls-4,.cls-88{opacity:0.29;}.cls-5,.cls-89{opacity:0.97;}.cls-6,.cls-90{opacity:0.5;}.cls-7,.cls-91{opacity:0.43;}.cls-8,.cls-92{opacity:0.04;}.cls-9,.cls-93{opacity:0.62;}.cls-10,.cls-94{opacity:0.87;}.cls-11,.cls-95{opacity:0.35;}.cls-12,.cls-96{opacity:0.97;}.cls-13,.cls-97{opacity:0.55;}.cls-14,.cls-98{opacity:0.27;}.cls-15,.cls-99{opacity:0.77;}.cls-102,.cls-16{opacity:0.31;}.cls-103,.cls-17{opacity:0.5;}.cls-104,.cls-18{opacity:0.47;}.cls-105,.cls-19{opacity:0.4;}.cls-106,.cls-20{opacity:0.92;}.cls-107,.cls-21{opacity:0.11;}.cls-108,.cls-22{opacity:0.47;}.cls-109,.cls-23{opacity:0.53;}.cls-111,.cls-24{opacity:0.89;}.cls-112,.cls-25{opacity:0.73;}.cls-113,.cls-26{opacity:0.95;}.cls-114,.cls-27{opacity:0.29;}.cls-116,.cls-28{opacity:0.32;}.cls-117,.cls-29{opacity:0.25;}.cls-118,.cls-30{opacity:0.02;}.cls-119,.cls-31{opacity:0.05;}.cls-120,.cls-32{opacity:0.15;}.cls-121,.cls-33{opacity:0.14;}.cls-122,.cls-34{opacity:0.05;}.cls-123,.cls-35{opacity:0.97;}.cls-124,.cls-36{opacity:0.85;}.cls-125,.cls-37{opacity:0.47;}.cls-126,.cls-38{opacity:0.19;}.cls-127,.cls-39{opacity:0.24;}.cls-128,.cls-40{opacity:0.37;}.cls-129,.cls-41{opacity:0.59;}.cls-130,.cls-42{opacity:0.33;}.cls-131,.cls-43{opacity:0.49;}.cls-132,.cls-44{opacity:0.61;}.cls-133,.cls-45{opacity:0.08;}.cls-135,.cls-46{opacity:0.95;}.cls-136,.cls-47{opacity:0.98;}.cls-137,.cls-48{opacity:0.76;}.cls-138,.cls-49{opacity:0.14;}.cls-140,.cls-50{opacity:0.36;}.cls-142,.cls-51{opacity:0.37;}.cls-143,.cls-52{opacity:0.03;}.cls-144,.cls-53{opacity:0.33;}.cls-145,.cls-54{opacity:0.41;}.cls-146,.cls-55{opacity:0.4;}.cls-147,.cls-56{opacity:0.44;}.cls-148,.cls-57{opacity:0.26;}.cls-149,.cls-58{opacity:0.53;}.cls-150,.cls-59{opacity:0.74;}.cls-151,.cls-60{opacity:0.69;}.cls-152,.cls-61{opacity:0.63;}.cls-153,.cls-62{opacity:0.74;}.cls-154,.cls-63{opacity:0.77;}.cls-155,.cls-64{opacity:0.09;}.cls-156,.cls-65{opacity:0.25;}.cls-157,.cls-66{opacity:0.86;}.cls-158,.cls-67{opacity:0.42;}.cls-159,.cls-68{opacity:0.63;}.cls-160,.cls-69{opacity:0.93;}.cls-161,.cls-70{opacity:0.62;}.cls-163,.cls-71{opacity:0.02;}.cls-164,.cls-72{opacity:0.43;}.cls-165,.cls-73{opacity:0.47;}.cls-166,.cls-74{opacity:0.7;}.cls-167,.cls-75{opacity:0.39;}.cls-168,.cls-76{opacity:0.61;}.cls-169,.cls-77{opacity:0.2;}.cls-170,.cls-78{opacity:1;}.cls-171,.cls-79{opacity:0.02;}.cls-172,.cls-80{opacity:0.34;}.cls-173,.cls-81{opacity:0.98;}.cls-174,.cls-82{opacity:0.51;}.cls-175,.cls-83{opacity:0.96;}.cls-176,.cls-84{opacity:0.39;}.cls-177,.cls-85{opacity:0.64;}.cls-178,.cls-86{opacity:0.88;}.cls-179,.cls-87{opacity:0.74;}.cls-100,.cls-101,.cls-102,.cls-103,.cls-104,.cls-105,.cls-106,.cls-107,.cls-108,.cls-109,.cls-110,.cls-111,.cls-112,.cls-113,.cls-114,.cls-115,.cls-116,.cls-117,.cls-118,.cls-119,.cls-120,.cls-121,.cls-122,.cls-123,.cls-124,.cls-125,.cls-126,.cls-127,.cls-128,.cls-129,.cls-130,.cls-131,.cls-132,.cls-133,.cls-134,.cls-135,.cls-136,.cls-137,.cls-138,.cls-139,.cls-140,.cls-141,.cls-142,.cls-143,.cls-144,.cls-145,.cls-146,.cls-147,.cls-148,.cls-149,.cls-150,.cls-151,.cls-152,.cls-153,.cls-154,.cls-155,.cls-156,.cls-157,.cls-158,.cls-159,.cls-160,.cls-161,.cls-162,.cls-163,.cls-164,.cls-165,.cls-166,.cls-167,.cls-168,.cls-169,.cls-170,.cls-171,.cls-172,.cls-173,.cls-174,.cls-175,.cls-176,.cls-177,.cls-178,.cls-179,.cls-88,.cls-89,.cls-90,.cls-91,.cls-92,.cls-93,.cls-94,.cls-95,.cls-96,.cls-97,.cls-98,.cls-99{fill:#dedede;mix-blend-mode:screen;}.cls-100{opacity:0.16;}.cls-101{opacity:0.68;}.cls-110{opacity:0.16;}.cls-115{opacity:0.42;}.cls-134{opacity:0.22;}.cls-139{opacity:0.9;}.cls-141{opacity:0.66;}.cls-162{opacity:0.95;}.cls-180{opacity:0.8;}</style><clipPath id="clip-path" transform="translate(19.28 51.69)"><rect class="cls-1" width="432" height="288"/></clipPath></defs><g class="cls-2"><g id="Layer_1" data-name="Layer 1"><rect class="cls-1" x="19.28" y="51.69" width="432" height="288"/><g class="cls-3"><polygon class="cls-4" points="0 153.19 0 162.59 78.73 79.02 0 153.19"/><polygon class="cls-5" points="0 266.08 0 275.69 80.48 190.26 0 266.08"/><polygon class="cls-6" points="0 222.85 0 238.95 134.78 95.88 0 222.85"/><polygon class="cls-7" points="0 175.65 0 192.59 141.8 42.06 0 175.65"/><polygon class="cls-8" points="0 305.63 0 321.4 132.07 181.21 0 305.63"/><polygon class="cls-9" points="0 187.09 0 192.13 42.22 147.32 0 187.09"/><polygon class="cls-10" points="0 304.12 0 331 225.09 92.07 0 304.12"/><polygon class="cls-11" points="17.05 352.63 252.26 102.95 0 340.6 0 352.63 17.05 352.63"/><polygon class="cls-12" points="132.12 352.63 236.86 241.45 118.84 352.63 132.12 352.63"/><polygon class="cls-13" points="0 240.82 0 259.94 160.02 90.08 0 240.82"/><polygon class="cls-14" points="0 56.12 28.3 26.08 21.75 26.08 0 46.57 0 56.12"/><polygon class="cls-15" points="0 187.86 0 192.26 36.86 153.14 0 187.86"/><polygon class="cls-16" points="0 97.43 0 104.51 59.25 41.62 0 97.43"/><polygon class="cls-17" points="0 178.19 0 187.8 80.41 102.44 0 178.19"/><polygon class="cls-18" points="0 149.55 116.32 26.08 115.31 26.08 0 134.71 0 149.55"/><polygon class="cls-19" points="0 226.74 0 237.65 91.37 140.66 0 226.74"/><polygon class="cls-20" points="0 52.73 25.11 26.08 16.08 26.08 0 41.23 0 52.73"/><polygon class="cls-21" points="38.69 352.63 196.48 185.14 18.68 352.63 38.69 352.63"/><polygon class="cls-22" points="58.34 352.63 190.25 212.61 41.62 352.63 58.34 352.63"/><polygon class="cls-23" points="0 180.81 0 182.86 17.17 164.64 0 180.81"/><polygon class="cls-24" points="0 136.82 0 143.96 59.73 80.55 0 136.82"/><polygon class="cls-25" points="0 183.04 147.87 26.08 145.15 26.08 0 162.82 0 183.04"/><polygon class="cls-26" points="0 299.08 0 309.79 89.66 214.62 0 299.08"/><polygon class="cls-27" points="207.89 352.63 309.11 245.19 195.05 352.63 207.89 352.63"/><polygon class="cls-28" points="0 263.42 0 275.62 102.16 167.18 0 263.42"/><polygon class="cls-29" points="29.48 352.63 237.77 131.53 3.06 352.63 29.48 352.63"/><polygon class="cls-30" points="0 117.6 0 122.82 43.7 76.43 0 117.6"/><polygon class="cls-31" points="84.95 352.63 278.5 147.17 60.41 352.63 84.95 352.63"/><polygon class="cls-32" points="0 60.07 0 61.92 15.49 45.48 0 60.07"/><polygon class="cls-33" points="23.66 352.63 152.17 216.21 7.36 352.63 23.66 352.63"/><polygon class="cls-34" points="23.18 352.63 187.05 178.68 2.4 352.63 23.18 352.63"/><polygon class="cls-35" points="0 323.5 0 352.63 243.88 93.75 0 323.5"/><polygon class="cls-36" points="117.69 352.63 242.24 220.41 101.89 352.63 117.69 352.63"/><polygon class="cls-37" points="0 163.89 0 168.12 35.42 130.52 0 163.89"/><polygon class="cls-38" points="0 278.05 0 292.19 118.37 166.54 0 278.05"/><polygon class="cls-39" points="139.87 352.63 296.2 186.68 120.04 352.63 139.87 352.63"/><polygon class="cls-40" points="39.97 352.63 185.17 198.5 21.56 352.63 39.97 352.63"/><polygon class="cls-41" points="148.15 352.63 224.81 271.26 138.43 352.63 148.15 352.63"/><polygon class="cls-42" points="0 245.66 0 262.76 143.21 110.74 0 245.66"/><polygon class="cls-43" points="0 146.88 113.81 26.08 111.14 26.08 0 130.78 0 146.88"/><polygon class="cls-44" points="0 197.78 0 214.94 143.65 62.46 0 197.78"/><polygon class="cls-45" points="0 215.43 0 222.9 62.54 156.52 0 215.43"/><polygon class="cls-46" points="126.18 352.63 282.32 186.88 106.38 352.63 126.18 352.63"/><polygon class="cls-47" points="80.83 352.63 196.5 229.84 66.16 352.63 80.83 352.63"/><polygon class="cls-48" points="0 301.29 0 319.17 149.69 160.27 0 301.29"/><polygon class="cls-49" points="0 204.65 0 219.28 122.44 89.3 0 204.65"/><polygon class="cls-50" points="107.6 352.63 195.44 259.39 96.46 352.63 107.6 352.63"/><polygon class="cls-51" points="0 170.91 136.44 26.08 133.88 26.08 0 152.2 0 170.91"/><polygon class="cls-52" points="0 258 0 279.82 182.67 85.92 0 258"/><polygon class="cls-53" points="0 161.04 0 175.86 124.06 44.17 0 161.04"/><polygon class="cls-54" points="0 245.43 0 262.65 144.18 109.61 0 245.43"/><polygon class="cls-55" points="0 105.18 74.52 26.08 69.21 26.08 0 91.28 0 105.18"/><polygon class="cls-56" points="160.15 352.63 287.46 217.49 144.01 352.63 160.15 352.63"/><polygon class="cls-57" points="0 145.58 0 152.44 57.4 91.51 0 145.58"/><polygon class="cls-58" points="0 164.9 0 177.33 104.07 66.86 0 164.9"/><polygon class="cls-59" points="69.57 352.63 259.59 150.92 45.48 352.63 69.57 352.63"/><polygon class="cls-60" points="25.55 352.63 154.87 215.35 9.15 352.63 25.55 352.63"/><polygon class="cls-61" points="0 276.24 0 297.47 177.78 108.76 0 276.24"/><polygon class="cls-62" points="108.21 352.63 216.48 237.7 94.48 352.63 108.21 352.63"/><polygon class="cls-63" points="0 62.09 0 65.93 32.14 31.82 0 62.09"/><polygon class="cls-64" points="0 123.23 0 133.61 86.83 41.43 0 123.23"/><polygon class="cls-65" points="0 62.03 33.87 26.08 32.72 26.08 0 56.91 0 62.03"/><polygon class="cls-66" points="0 181.9 0 188.33 53.85 131.18 0 181.9"/><polygon class="cls-67" points="0 287.2 0 303.89 139.73 155.56 0 287.2"/><polygon class="cls-68" points="0 264.63 0 268.97 36.36 230.38 0 264.63"/><polygon class="cls-69" points="0 274.99 0 283.72 73.11 206.12 0 274.99"/><polygon class="cls-70" points="0 161.03 0 171.66 88.92 77.27 0 161.03"/><polygon class="cls-71" points="142.66 352.63 247.78 241.05 129.34 352.63 142.66 352.63"/><polygon class="cls-72" points="162.68 352.63 314.87 191.08 143.38 352.63 162.68 352.63"/><polygon class="cls-73" points="0 219.41 0 243.35 200.39 30.63 0 219.41"/><polygon class="cls-74" points="0 58.71 30.74 26.08 29.14 26.08 0 53.53 0 58.71"/><polygon class="cls-75" points="63.93 352.63 211.84 195.63 45.18 352.63 63.93 352.63"/><polygon class="cls-76" points="0 204.22 0 222.27 151.14 61.84 0 204.22"/><polygon class="cls-77" points="0 101.45 71.01 26.08 66.85 26.08 0 89.05 0 101.45"/><polygon class="cls-78" points="0 169.47 0 182.4 108.23 67.51 0 169.47"/><polygon class="cls-79" points="0 164.25 0 167.04 23.38 142.22 0 164.25"/><polygon class="cls-80" points="29.62 352.63 247.8 121.03 1.95 352.63 29.62 352.63"/><polygon class="cls-81" points="0 310.06 0 330.28 169.31 150.56 0 310.06"/><polygon class="cls-82" points="0 328.76 0 347.28 155.01 182.73 0 328.76"/><polygon class="cls-83" points="76.28 352.63 243.97 174.62 55.01 352.63 76.28 352.63"/><polygon class="cls-84" points="0 256.79 0 270.69 116.31 147.22 0 256.79"/><polygon class="cls-85" points="0 146.05 113.02 26.08 108.89 26.08 0 128.66 0 146.05"/><polygon class="cls-86" points="125.8 352.63 219.26 253.42 113.95 352.63 125.8 352.63"/><polygon class="cls-87" points="0 229.08 0 241.14 100.97 133.97 0 229.08"/><polygon class="cls-88" points="0 188.16 172.05 26.08 150.73 26.08 0 186.08 0 188.16"/><polygon class="cls-89" points="0 306.38 223.96 95.4 204.74 76.19 0 293.52 0 306.38"/><polygon class="cls-90" points="222.88 26.08 42.3 217.76 245.77 26.08 222.88 26.08"/><polygon class="cls-91" points="0 215.39 200.96 26.08 174.22 26.08 0 211.01 0 215.39"/><polygon class="cls-92" points="258.18 68.97 5.6 337.08 273.71 84.5 258.18 68.97"/><polygon class="cls-93" points="0 227.12 185.56 52.32 166.62 33.38 0 210.25 0 227.12"/><polygon class="cls-94" points="0 346.7 340.35 26.08 301.77 26.08 0 346.41 0 346.7"/><polygon class="cls-95" points="34.3 352.63 380.93 26.08 337.44 26.08 29.81 352.63 34.3 352.63"/><polygon class="cls-96" points="163.4 352.63 381.2 147.45 360.26 126.51 147.24 352.63 163.4 352.63"/><polygon class="cls-97" points="240.22 26.08 25.63 253.87 267.43 26.08 240.22 26.08"/><polygon class="cls-98" points="0 89.73 67.57 26.08 42.24 26.08 0 70.92 0 89.73"/><polygon class="cls-99" points="0 228.73 180.63 58.57 160.83 38.77 0 209.49 0 228.73"/><polygon class="cls-100" points="0 118.47 98.07 26.08 56.28 26.08 0 85.82 0 118.47"/><polygon class="cls-101" points="0 54.81 30.5 26.08 6.54 26.08 0 33.02 0 54.81"/><polygon class="cls-102" points="0 134.97 115.59 26.08 93.45 26.08 0 125.28 0 134.97"/><polygon class="cls-103" points="0 212.68 198.07 26.08 174.97 26.08 0 211.81 0 212.68"/><polygon class="cls-104" points="0 175.57 158.69 26.08 132.56 26.08 0 166.79 0 175.57"/><polygon class="cls-105" points="0 262.24 232.38 43.33 218.11 29.05 0 260.58 0 262.24"/><polygon class="cls-106" points="0 86.74 64.39 26.08 36.7 26.08 0 65.04 0 86.74"/><polygon class="cls-107" points="58.98 352.63 338.75 89.07 321.95 72.26 57.82 352.63 58.98 352.63"/><polygon class="cls-108" points="83.01 352.63 333.06 117.07 315.19 99.2 76.45 352.63 83.01 352.63"/><polygon class="cls-109" points="0 224.11 162.19 71.31 139.89 49.02 0 197.51 0 224.11"/><polygon class="cls-110" points="0 26.08 0 36.73 11.31 26.08 0 26.08"/><polygon class="cls-111" points="0 172.84 155.78 26.08 132.14 26.08 0 166.35 0 172.84"/><polygon class="cls-112" points="0 207.65 192.74 26.08 160.14 26.08 0 196.07 0 207.65"/><polygon class="cls-113" points="0 340.86 233.9 120.51 213.17 99.78 0 326.06 0 340.86"/><polygon class="cls-114" points="243.94 352.63 455.55 153.28 430.41 128.14 218.93 352.63 243.94 352.63"/><polygon class="cls-115" points="0 159.81 126.57 40.57 112.08 26.08 94.49 26.08 0 126.38 0 159.81"/><polygon class="cls-116" points="0 300.34 243.9 70.57 228.17 54.84 0 297.04 0 300.34"/><polygon class="cls-117" points="47.34 352.63 381.98 37.39 370.67 26.08 352.5 26.08 44.87 352.63 47.34 352.63"/><polygon class="cls-118" points="0 154.76 136.6 26.08 111.07 26.08 0 143.98 0 154.76"/><polygon class="cls-119" points="107.84 352.63 424.24 54.56 400.52 30.84 97.37 352.63 107.84 352.63"/><polygon class="cls-120" points="0 99.47 77.91 26.08 51.47 26.08 0 80.72 0 99.47"/><polygon class="cls-121" points="48.96 352.63 295.08 120.78 277.01 102.71 41.57 352.63 48.96 352.63"/><polygon class="cls-122" points="312.88 66.16 51.22 343.92 328.97 82.26 312.88 66.16"/><polygon class="cls-123" points="15.91 352.63 362.55 26.08 320.61 26.08 12.98 352.63 15.91 352.63"/><polygon class="cls-124" points="145.91 352.63 386.32 126.15 365.91 105.74 133.32 352.63 145.91 352.63"/><polygon class="cls-125" points="0 203.48 178.53 35.29 169.32 26.08 151.31 26.08 0 186.7 0 203.48"/><polygon class="cls-126" points="244.87 54.69 4.98 309.33 259.62 69.44 244.87 54.69"/><polygon class="cls-127" points="168 352.63 442.19 94.33 417.96 70.09 151.79 352.63 168 352.63"/><polygon class="cls-128" points="61.97 352.63 327.5 102.48 310.59 85.57 59.01 352.63 61.97 352.63"/><polygon class="cls-129" points="184.37 352.63 369.82 177.93 347.54 155.65 161.97 352.63 184.37 352.63"/><polygon class="cls-130" points="245.69 26.08 57.27 226.09 269.58 26.08 245.69 26.08"/><polygon class="cls-131" points="0 173.43 156.42 26.08 128.25 26.08 0 162.22 0 173.43"/><polygon class="cls-132" points="0 235.92 222.75 26.08 196.89 26.08 0 235.08 0 235.92"/><polygon class="cls-133" points="0 254.41 205.34 60.97 187.48 43.12 0 242.13 0 254.41"/><polygon class="cls-134" points="0 26.08 0 34.87 9.33 26.08 0 26.08"/><polygon class="cls-135" points="153.14 352.63 427.73 93.95 404.66 70.87 139.23 352.63 153.14 352.63"/><polygon class="cls-136" points="108.81 352.63 339.92 134.91 320.83 115.83 97.75 352.63 108.81 352.63"/><polygon class="cls-137" points="276.69 48.94 53.41 285.95 290.43 62.67 276.69 48.94"/><polygon class="cls-138" points="204.62 26.08 34.66 206.49 226.16 26.08 204.62 26.08"/><polygon class="cls-139" points="0 91.79 69.75 26.08 37.21 26.08 0 65.58 0 91.79"/><polygon class="cls-140" points="141.26 352.63 339.9 165.5 318.72 144.33 122.49 352.63 141.26 352.63"/><polygon class="cls-141" points="0 26.08 0 51.91 27.41 26.08 0 26.08"/><polygon class="cls-142" points="0 196.08 180.46 26.08 149.66 26.08 0 184.94 0 196.08"/><polygon class="cls-143" points="256.78 26.08 10.92 287.07 287.96 26.08 256.78 26.08"/><polygon class="cls-144" points="0 199.57 184.16 26.08 159.68 26.08 0 195.58 0 199.57"/><polygon class="cls-145" points="245.43 26.08 55.59 227.6 269.5 26.08 245.43 26.08"/><polygon class="cls-146" points="0 134.92 115.53 26.08 87.98 26.08 0 119.47 0 134.92"/><polygon class="cls-147" points="191.06 352.63 433.01 124.7 409.65 101.34 172.93 352.63 191.06 352.63"/><polygon class="cls-148" points="0 181.77 165.27 26.08 139.96 26.08 0 174.64 0 181.77"/><polygon class="cls-149" points="0 200.58 185.24 26.08 163.91 26.08 0 200.07 0 200.58"/><polygon class="cls-150" points="91.05 352.63 404.43 57.41 382.51 35.49 83.75 352.63 91.05 352.63"/><polygon class="cls-151" points="50.62 352.63 297.72 119.86 279.77 101.91 43.58 352.63 50.62 352.63"/><polygon class="cls-152" points="275.26 26.08 37.95 277.99 305.36 26.08 275.26 26.08"/><polygon class="cls-153" points="138.11 352.63 360.37 143.25 340.34 123.22 124.22 352.63 138.11 352.63"/><polygon class="cls-154" points="0 101.02 79.55 26.08 55.72 26.08 0 85.23 0 101.02"/><polygon class="cls-155" points="0 160.67 142.87 26.08 120.96 26.08 0 154.48 0 160.67"/><polygon class="cls-156" points="0 96.31 74.55 26.08 51.57 26.08 0 80.82 0 96.31"/><polygon class="cls-157" points="0 219.93 196.16 35.14 187.09 26.08 171.93 26.08 0 208.58 0 219.93"/><polygon class="cls-158" points="266.97 44.46 51.19 273.51 280.24 57.73 266.97 44.46"/><polygon class="cls-159" points="0 311.37 183.15 138.83 157.31 112.99 0 279.98 0 311.37"/><polygon class="cls-160" points="0 317.12 217.53 112.19 196.43 91.1 0 299.61 0 317.12"/><polygon class="cls-161" points="0 195.8 180.16 26.08 159.48 26.08 0 195.37 0 195.8"/><polygon class="cls-162" points="0 85.44 63.01 26.08 32.48 26.08 0 60.56 0 85.44"/><polygon class="cls-163" points="174.38 352.63 392.36 147.28 370.95 125.88 157.34 352.63 174.38 352.63"/><polygon class="cls-164" points="192.87 352.63 461.6 99.47 435.88 73.74 173.15 352.63 192.87 352.63"/><polygon class="cls-165" points="0 264.27 252.84 26.08 216.92 26.08 0 256.34 0 264.27"/><polygon class="cls-166" points="0 93.16 71.21 26.08 48.21 26.08 0 77.26 0 93.16"/><polygon class="cls-167" points="86.69 352.63 354.7 100.15 336.72 82.17 81.93 352.63 86.69 352.63"/><polygon class="cls-168" points="0 242.93 230.19 26.08 203.22 26.08 0 241.8 0 242.93"/><polygon class="cls-169" points="0 131.3 111.69 26.08 85.86 26.08 0 117.22 0 131.3"/><polygon class="cls-170" points="0 205.23 190.17 26.08 168.61 26.08 0 205.06 0 205.23"/><polygon class="cls-171" points="0 205.57 167.39 47.88 147.12 27.62 0 183.78 0 205.57"/><polygon class="cls-172" points="47.65 352.63 392.69 27.58 391.19 26.08 351.31 26.08 43.68 352.63 47.65 352.63"/><polygon class="cls-173" points="296 38.91 62.47 286.8 310.36 53.27 296 38.91"/><polygon class="cls-174" points="281.22 70.59 31.81 335.33 296.56 85.93 281.22 70.59"/><polygon class="cls-175" points="98.69 352.63 387.88 80.19 367.8 60.11 92.23 352.63 98.69 352.63"/><polygon class="cls-176" points="243.63 36.19 30.54 262.39 256.74 49.3 243.63 36.19"/><polygon class="cls-177" points="0 173 155.96 26.08 125.79 26.08 0 159.6 0 173"/><polygon class="cls-178" points="158.61 352.63 363.65 159.47 342.62 138.43 140.83 352.63 158.61 352.63"/><polygon class="cls-179" points="225.46 26.08 17.41 246.93 241.33 35.98 231.42 26.08 225.46 26.08"/><polygon class="cls-5" points="467.15 256.24 437.4 287.83 467.15 259.8 467.15 256.24"/><polygon class="cls-6" points="467.15 292.99 410.96 352.63 414.5 352.63 467.15 303.03 467.15 292.99"/><polygon class="cls-7" points="467.15 339.35 454.64 352.63 464.6 352.63 467.15 350.23 467.15 339.35"/><polygon class="cls-8" points="467.15 210.53 385.8 296.88 467.15 220.25 467.15 210.53"/><polygon class="cls-10" points="467.15 200.93 324.24 352.63 328.23 352.63 467.15 221.76 467.15 200.93"/><polygon class="cls-11" points="467.15 161.2 286.81 352.63 289.5 352.63 467.15 185.28 467.15 161.2"/><polygon class="cls-12" points="467.15 39.06 281.02 236.64 467.15 61.29 467.15 39.06"/><polygon class="cls-13" points="467.15 272 391.19 352.63 395.42 352.63 467.15 285.05 467.15 272"/><polygon class="cls-17" points="467.15 344.14 459.15 352.63 461.9 352.63 467.15 347.69 467.15 344.14"/><polygon class="cls-19" points="467.15 294.29 426.5 337.43 467.15 299.14 467.15 294.29"/><polygon class="cls-21" points="467.15 138.24 321.4 292.96 467.15 155.65 467.15 138.24"/><polygon class="cls-22" points="467.15 117.37 327.62 265.48 467.15 134.04 467.15 117.37"/><polygon class="cls-25" points="467.15 348.9 463.63 352.63 467.15 352.63 467.15 348.9"/><polygon class="cls-26" points="467.15 222.14 428.21 263.48 467.15 226.79 467.15 222.14"/><polygon class="cls-27" points="482.98 0 288.14 206.83 507.69 0 482.98 0"/><polygon class="cls-28" points="467.15 256.32 415.71 310.92 467.15 262.46 467.15 256.32"/><polygon class="cls-29" points="467.15 148.02 280.1 346.57 467.15 170.36 467.15 148.02"/><polygon class="cls-31" points="467.15 89.13 239.37 330.92 467.15 116.34 467.15 89.13"/><polygon class="cls-33" points="467.15 154.19 365.7 261.88 467.15 166.31 467.15 154.19"/><polygon class="cls-34" points="467.15 154.7 330.82 299.41 467.15 170.98 467.15 154.7"/><polygon class="cls-35" points="467.15 179.31 303.87 352.63 307.66 352.63 467.15 202.38 467.15 179.31"/><polygon class="cls-36" points="467.15 54.38 275.63 257.68 467.15 77.26 467.15 54.38"/><polygon class="cls-38" points="467.15 239.74 399.5 311.55 467.15 247.82 467.15 239.74"/><polygon class="cls-39" points="467.15 30.84 221.67 291.41 467.15 60.16 467.15 30.84"/><polygon class="cls-40" points="467.15 136.88 332.7 279.6 467.15 152.94 467.15 136.88"/><polygon class="cls-41" points="467.15 26.08 463.35 26.08 293.06 206.84 467.15 42.84 467.15 26.08"/><polygon class="cls-42" points="467.15 269.17 388.53 352.63 390.29 352.63 467.15 280.22 467.15 269.17"/><polygon class="cls-44" points="467.15 316.99 433.58 352.63 441.1 352.63 467.15 328.09 467.15 316.99"/><polygon class="cls-45" points="467.15 309.04 455.34 321.57 467.15 310.45 467.15 309.04"/><polygon class="cls-180" points="471.12 63.51 239.52 309.35 471.12 91.17 471.12 63.51"/><polygon class="cls-47" points="467.15 93.5 321.37 248.25 467.15 110.92 467.15 93.5"/><polygon class="cls-48" points="467.15 212.77 368.19 317.82 467.15 224.59 467.15 212.77"/><polygon class="cls-49" points="467.15 312.66 429.5 352.63 433.81 352.63 467.15 321.23 467.15 312.66"/><polygon class="cls-50" points="467.15 65.09 322.44 218.71 467.15 82.38 467.15 65.09"/><polygon class="cls-52" points="467.15 252.12 372.46 352.63 377.19 352.63 467.15 267.88 467.15 252.12"/><polygon class="cls-54" points="467.15 269.28 388.63 352.63 390.52 352.63 467.15 280.44 467.15 269.28"/><polygon class="cls-56" points="467.15 26.08 451.35 26.08 230.42 260.6 467.15 37.58 467.15 26.08"/><polygon class="cls-59" points="467.15 105.45 258.28 327.17 467.15 130.41 467.15 105.45"/><polygon class="cls-60" points="467.15 152.19 363 262.74 467.15 164.63 467.15 152.19"/><polygon class="cls-61" points="467.15 234.46 355.83 352.63 357.82 352.63 467.15 249.64 467.15 234.46"/><polygon class="cls-62" points="467.15 64.44 301.39 240.39 467.15 84.24 467.15 64.44"/><polygon class="cls-66" points="467.15 343.6 464.03 346.92 467.15 343.97 467.15 343.6"/><polygon class="cls-67" points="467.15 228.04 378.14 322.53 467.15 238.68 467.15 228.04"/><polygon class="cls-69" points="467.15 248.21 444.76 271.98 467.15 250.89 467.15 248.21"/><polygon class="cls-71" points="467.15 27.87 270.09 237.04 467.15 51.41 467.15 27.87"/><polygon class="cls-72" points="467.15 26.08 448.82 26.08 203.01 287.01 467.15 38.18 467.15 26.08"/><polygon class="cls-73" points="467.15 288.59 406.82 352.63 418.15 352.63 467.15 306.47 467.15 288.59"/><polygon class="cls-75" points="467.15 111.44 306.04 282.46 467.15 130.68 467.15 111.44"/><polygon class="cls-76" points="467.15 309.66 426.67 352.63 434.27 352.63 467.15 321.66 467.15 309.66"/><polygon class="cls-78" points="467.15 349.54 464.24 352.63 467.15 352.63 467.15 349.54"/><polygon class="cls-80" points="467.15 147.87 274.25 352.63 274.78 352.63 467.15 171.41 467.15 147.87"/><polygon class="cls-81" points="467.15 201.66 348.57 327.53 467.15 215.82 467.15 201.66"/><polygon class="cls-82" points="467.15 184.66 362.86 295.36 467.15 197.12 467.15 184.66"/><polygon class="cls-83" points="467.15 98.34 273.9 303.47 467.15 121.42 467.15 98.34"/><polygon class="cls-84" points="467.15 261.25 401.56 330.87 467.15 269.08 467.15 261.25"/><polygon class="cls-87" points="467.15 290.8 416.91 344.13 467.15 296.8 467.15 290.8"/><polygon class="cls-88" points="467.15 337.72 451.32 352.63 460.77 352.63 467.15 345.86 467.15 337.72"/><polygon class="cls-89" points="467.15 219.49 325.82 352.63 359.55 352.63 467.15 238.41 467.15 219.49"/><polygon class="cls-90" points="467.15 268.26 377.6 352.63 388.62 352.63 467.15 269.27 467.15 268.26"/><polygon class="cls-91" points="467.15 310.48 422.41 352.63 437.28 352.63 467.15 320.93 467.15 310.48"/><polygon class="cls-92" points="467.15 183.52 287.63 352.63 312.91 352.63 467.15 188.91 467.15 183.52"/><polygon class="cls-93" points="467.15 298.75 409.96 352.63 438 352.63 467.15 321.69 467.15 298.75"/><polygon class="cls-94" points="467.15 179.17 283.02 352.63 309.73 352.63 467.15 185.53 467.15 179.17"/><polygon class="cls-95" points="467.15 140.94 242.44 352.63 274.05 352.63 467.15 147.66 467.15 140.94"/><polygon class="cls-96" points="459.97 26.08 124.34 341.75 145.28 362.69 464.25 26.08 459.97 26.08"/><polygon class="cls-97" points="467.15 247.87 355.94 352.63 371.28 352.63 467.15 250.86 467.15 247.87"/><polygon class="cls-99" points="467.15 297.14 408.25 352.63 438.71 352.63 467.15 322.44 467.15 297.14"/><polygon class="cls-103" points="467.15 313.2 425.3 352.63 436.53 352.63 467.15 320.13 467.15 313.2"/><polygon class="cls-105" points="467.15 263.64 372.68 352.63 390.59 352.63 467.15 271.36 467.15 263.64"/><polygon class="cls-107" points="467.15 117.68 217.75 352.63 246.04 352.63 467.15 117.93 467.15 117.68"/><polygon class="cls-108" points="467.15 95.04 193.72 352.63 227.42 352.63 467.15 98.16 467.15 95.04"/><polygon class="cls-109" points="467.15 301.77 413.16 352.63 450 352.63 467.15 334.43 467.15 301.77"/><polygon class="cls-112" points="467.15 318.23 430.63 352.63 451.36 352.63 467.15 335.87 467.15 318.23"/><polygon class="cls-113" points="467.15 185.02 289.23 352.63 328.9 352.63 467.15 205.88 467.15 185.02"/><polygon class="cls-114" points="379.43 26.08 45.31 340.68 70.46 365.82 392.57 26.08 379.43 26.08"/><polygon class="cls-116" points="467.15 225.54 332.24 352.63 356.24 352.63 467.15 234.9 467.15 225.54"/><polygon class="cls-117" points="467.15 128.65 229.39 352.63 259 352.63 467.15 131.68 467.15 128.65"/><polygon class="cls-119" points="467.15 71.66 168.9 352.63 206.5 352.63 467.15 75.95 467.15 71.66"/><polygon class="cls-121" points="467.15 127.12 227.77 352.63 262.3 352.63 467.15 135.18 467.15 127.12"/><polygon class="cls-122" points="260.86 352.63 466.66 134.17 234.76 352.63 260.86 352.63"/><polygon class="cls-123" points="467.15 158.26 260.82 352.63 290.89 352.63 467.15 165.53 467.15 158.26"/><polygon class="cls-124" points="467.15 35.79 131.55 351.94 132.24 352.63 170.55 352.63 467.15 37.78 467.15 35.79"/><polygon class="cls-125" points="467.15 322.39 435.06 352.63 460.18 352.63 467.15 345.24 467.15 322.39"/><polygon class="cls-126" points="467.15 211.85 317.71 352.63 339.68 352.63 467.15 217.32 467.15 211.85"/><polygon class="cls-127" points="152.08 352.63 459.71 26.08 455.37 26.08 108.73 352.63 152.08 352.63"/><polygon class="cls-128" points="467.15 114.87 214.76 352.63 244.86 352.63 467.15 116.67 467.15 114.87"/><polygon class="cls-129" points="439 26.08 148.05 300.17 170.33 322.45 449.53 26.08 439 26.08"/><polygon class="cls-130" points="365.81 352.63 460.61 252 353.79 352.63 365.81 352.63"/><polygon class="cls-132" points="467.15 289.96 400.62 352.63 414.61 352.63 467.15 296.86 467.15 289.96"/><polygon class="cls-133" points="467.15 271.46 380.99 352.63 407.96 352.63 467.15 289.8 467.15 271.46"/><polygon class="cls-135" points="467.15 28.98 123.59 352.63 164.64 352.63 467.15 31.52 467.15 28.98"/><polygon class="cls-136" points="467.15 70.74 177.96 343.18 187.41 352.63 206.11 352.63 467.15 75.54 467.15 70.74"/><polygon class="cls-137" points="313.27 352.63 464.46 192.14 294.1 352.63 313.27 352.63"/><polygon class="cls-138" points="467.15 286.74 397.2 352.63 406.88 352.63 467.15 288.66 467.15 286.74"/><polygon class="cls-140" points="467.15 40.17 177.98 312.59 199.15 333.76 467.15 49.28 467.15 40.17"/><polygon class="cls-142" points="467.15 329.79 442.91 352.63 461.84 352.63 467.15 346.99 467.15 329.79"/><polygon class="cls-143" points="467.15 228.52 335.41 352.63 354.71 352.63 467.15 233.28 467.15 228.52"/><polygon class="cls-144" points="467.15 326.31 439.21 352.63 451.82 352.63 467.15 336.36 467.15 326.31"/><polygon class="cls-145" points="366.06 352.63 462.28 250.49 353.86 352.63 366.06 352.63"/><polygon class="cls-147" points="130.94 352.63 438.57 26.08 432.31 26.08 85.67 352.63 130.94 352.63"/><polygon class="cls-148" points="467.15 344.11 458.1 352.63 467.15 352.63 467.15 344.11"/><polygon class="cls-149" points="467.15 325.29 438.13 352.63 447.59 352.63 467.15 331.87 467.15 325.29"/><polygon class="cls-150" points="467.15 87.48 185.69 352.63 220.12 352.63 467.15 90.41 467.15 87.48"/><polygon class="cls-151" points="467.15 125.56 226.11 352.63 260.29 352.63 467.15 133.05 467.15 125.56"/><polygon class="cls-152" points="467.15 212.13 318.01 352.63 336.23 352.63 467.15 213.66 467.15 212.13"/><polygon class="cls-153" points="467.15 43.14 157.5 334.84 175.29 352.63 179.65 352.63 467.15 47.45 467.15 43.14"/><polygon class="cls-157" points="467.15 305.95 417.6 352.63 439.57 352.63 467.15 323.35 467.15 305.95"/><polygon class="cls-158" points="327.21 352.63 466.69 204.58 309.53 352.63 327.21 352.63"/><polygon class="cls-159" points="467.15 214.51 334.72 339.26 348.09 352.63 372.31 352.63 467.15 251.96 467.15 214.51"/><polygon class="cls-160" points="467.15 208.75 314.42 352.63 353.81 352.63 467.15 232.32 467.15 208.75"/><polygon class="cls-161" points="467.15 330.08 443.21 352.63 452.02 352.63 467.15 336.57 467.15 330.08"/><polygon class="cls-163" points="448.99 26.08 125.52 330.81 146.92 352.22 454.16 26.08 448.99 26.08"/><polygon class="cls-164" points="130.72 352.63 438.35 26.08 430.5 26.08 83.86 352.63 130.72 352.63"/><polygon class="cls-165" points="467.15 261.61 370.53 352.63 394.58 352.63 467.15 275.6 467.15 261.61"/><polygon class="cls-167" points="467.15 91.58 190.05 352.63 221.93 352.63 467.15 92.33 467.15 91.58"/><polygon class="cls-168" points="467.15 282.95 393.18 352.63 408.28 352.63 467.15 290.14 467.15 282.95"/><polygon class="cls-170" points="467.15 320.65 433.2 352.63 442.89 352.63 467.15 326.88 467.15 320.65"/><polygon class="cls-171" points="467.15 320.31 432.84 352.63 462.93 352.63 467.15 348.15 467.15 320.31"/><polygon class="cls-172" points="467.15 128.36 229.09 352.63 260.19 352.63 467.15 132.94 467.15 128.36"/><polygon class="cls-173" points="303.42 352.63 455.41 191.29 284.14 352.63 303.42 352.63"/><polygon class="cls-174" points="467.15 160.57 263.28 352.63 288.35 352.63 467.15 162.83 467.15 160.57"/><polygon class="cls-175" points="467.15 80.28 178.04 352.63 211.64 352.63 467.15 81.4 467.15 80.28"/><polygon class="cls-176" points="467.15 234.71 341.98 352.63 358.33 352.63 467.15 237.12 467.15 234.71"/><polygon class="cls-178" points="467.15 26.08 464.76 26.08 154.22 318.63 175.25 339.66 467.15 29.81 467.15 26.08"/><polygon class="cls-179" points="467.15 262.55 371.53 352.63 386.04 352.63 467.15 266.53 467.15 262.55"/></g></g></g></svg>