<?xml version="1.0" encoding="utf-8"?>
<!-- Generator: Adobe Illustrator 25.2.3, SVG Export Plug-In . SVG Version: 6.00 Build 0)  -->
<svg version="1.1" id="Layer_1" xmlns="http://www.w3.org/2000/svg" xmlns:xlink="http://www.w3.org/1999/xlink" x="0px" y="0px"
	 viewBox="0 0 1741.9 530.3" style="enable-background:new 0 0 1741.9 530.3;" xml:space="preserve">
<style type="text/css">
	.st0{fill:#333333;}
	.st1{fill:#FFFFFF;stroke:#333333;stroke-width:60;stroke-linecap:round;stroke-miterlimit:10;}
</style>
<path class="st0" d="M723,414.8c-19.8,0-37.6-4.6-53.6-13.7c-15.7-8.8-28.7-21.7-37.8-37.3c-9.2-15.7-14.1-33.5-14.6-53.2V126.9
	c-0.2-3.1,1-6.2,3.2-8.4c2.2-2,5.2-3.1,8.2-3c3.5,0,6.3,1,8.4,3c2.1,2.3,3.2,5.3,3,8.4v118.6c8.1-13.2,19.4-23.7,34-31.6
	c14.6-7.9,31-11.8,49.3-11.8c20.3,0,38.5,4.6,54.6,13.9c15.8,9,28.9,22.1,38,37.8c9.3,16,13.9,34.1,13.9,54.4s-4.6,38.5-13.9,54.6
	c-9,15.9-22.1,29-38,38C761.4,410.1,743.2,414.8,723,414.8z M723,393.5c16,0,30.3-3.7,42.8-11.2c12.4-7.4,22.7-17.8,29.8-30.4
	c7.3-12.8,11-27.3,11-43.5s-3.7-30.7-11-43.3c-7.2-12.5-17.5-22.9-29.8-30.2c-12.6-7.5-26.8-11.2-42.8-11.2
	c-15.7,0-29.9,3.7-42.6,11.2c-12.5,7.3-22.8,17.7-29.8,30.2c-7.2,12.7-10.8,27.1-10.8,43.4s3.6,30.7,10.8,43.5
	c7,12.6,17.4,23.1,29.8,30.4C693,389.7,707.2,393.5,723,393.5z"/>
<path class="st0" d="M928.3,412.5c-9.2,0.1-18.2-2.7-25.7-8s-13.3-12.7-17.5-22s-6.3-20.2-6.3-32.7V126.9c-0.2-3.1,1-6.2,3.2-8.4
	c2.2-2,5.2-3.1,8.2-3c3.6,0,6.3,1,8.4,3c2.1,2.3,3.2,5.3,3,8.4v222.8c0,11.7,2.5,21.2,7.4,28.7s11.3,11.2,19.2,11.2h9.5
	c2.6-0.1,5.1,1,6.8,3c1.8,2,2.7,4.8,2.7,8.4c0.1,3-1,6-3,8.2c-2.2,2.2-5.2,3.4-8.4,3.2L928.3,412.5z"/>
<path class="st0" d="M1007.7,160.8c-4.6,0.1-9.1-1.8-12.3-5.1c-3.4-3.4-5.3-8-5.1-12.7c0-5.8,1.8-10.2,5.5-13.1
	c3.5-2.8,7.9-4.4,12.3-4.4c4.4,0,8.6,1.6,12,4.4c3.7,2.9,5.5,7.3,5.5,13.1c0.2,9.7-7.5,17.7-17.2,17.9
	C1008.2,160.8,1008,160.8,1007.7,160.8L1007.7,160.8z M1008.1,412.5c-6.1,0.2-11.2-4.5-11.4-10.6c0-0.3,0-0.6,0-0.8V215.9
	c-0.2-3.1,1-6.2,3.2-8.4c2.2-2,5.2-3.1,8.2-3c3.5,0,6.3,1,8.4,3c2.1,2.3,3.2,5.3,3,8.4v185.2c0.1,3-1,6-3,8.2
	C1014.3,411.5,1011.2,412.6,1008.1,412.5z"/>
<path class="st0" d="M1106.9,412.5c-6.1,0.2-11.2-4.5-11.4-10.6c0-0.3,0-0.6,0-0.8V215.9c-0.2-3.1,1-6.2,3.2-8.4
	c2.2-2,5.2-3.1,8.2-3c3.6,0,6.3,1,8.4,3c2.1,2.3,3.2,5.3,3.1,8.4v185.2c0.1,3-1,6-3.1,8.2C1113.1,411.5,1110.1,412.6,1106.9,412.5z
	 M1275.4,412.5c-6.1,0.2-11.2-4.5-11.4-10.6c0-0.3,0-0.6,0-0.8V298.8c0-16.7-3.2-30.5-9.7-41.4c-6.1-10.6-15.3-19.1-26.2-24.5
	c-11-5.4-23.5-8.2-37.4-8.2c-13.7,0-26,2.6-36.9,7.8c-10.4,4.7-19.3,12.2-25.9,21.5c-6.3,9-9.6,19.8-9.5,30.8h-19
	c0.8-15.1,5.7-29.8,14.1-42.4c8.3-12.5,19.5-22.6,32.7-29.7c13.7-7.3,29-11,44.5-10.8c18.3,0,34.7,3.7,49.2,11.2
	c14.4,7.3,26.4,18.7,34.4,32.7c8.4,14.3,12.6,32,12.6,53V401c0.2,6.1-4.5,11.2-10.6,11.4C1276,412.4,1275.7,412.4,1275.4,412.5
	L1275.4,412.5z"/>
<path class="st0" d="M1362.8,412.5c-6.1,0.2-11.2-4.6-11.4-10.7c0-0.2,0-0.5,0-0.7V126.9c-0.2-3.1,1-6.2,3.2-8.4
	c2.2-2,5.2-3.1,8.2-3c3.6,0,6.3,1,8.4,3c2.1,2.3,3.2,5.3,3,8.4V401c0.1,3-1,6-3,8.2C1369,411.5,1366,412.6,1362.8,412.5z
	 M1366.6,347.5l-13.7-15.2l139.2-126.6c2.1-1.8,4.7-2.9,7.4-3c2.4,0,4.7,1.3,7,3.8s3.4,5.1,3.4,7.6s-1.3,4.8-3.8,6.8L1366.6,347.5z
	 M1506.9,410.6c-2.5,2.3-5.1,3.2-7.8,2.8c-2.8-0.5-5.3-2.1-7-4.4L1402,298.8l16.3-13.3l90.1,110.3c1.9,2.1,2.9,4.8,2.9,7.6
	C1511.2,405.9,1509.7,408.2,1506.9,410.6L1506.9,410.6z"/>
<path class="st1" d="M284.9,245.4"/>
<path class="st0" d="M1476.8,0H265.1C118.7,0,0,118.7,0,265.1s118.7,265.1,265.1,265.1h1211.6c146.4,0,265.1-118.7,265.1-265.1
	S1623.2,0,1476.8,0z M293.1,331.4l-67.3,67.3c-26,26-68.2,26-94.2,0s-26-68.2,0-94.2l66.7-66.7c-0.3,9.9,1.1,19.8,4.1,29.2
	l-54.1,54.1c-16.8,16.8-16.8,44.1,0,60.9c16.8,16.8,44.1,16.8,60.9,0l67.3-67.3c16.8-16.8,16.8-44.1,0-60.9
	c-4.6-4.6-4.6-12.1,0-16.7c4.7-4.7,12.1-4.6,16.6,0.1C319.1,263.2,319.1,305.4,293.1,331.4z M327.7,263.2l54.1-54.1
	c16.8-16.8,16.8-44,0-60.8s-44-16.8-60.8,0l-67.3,67.3c-16.8,16.8-16.8,44.1,0,60.9c4.6,4.6,4.6,12.1,0,16.7c-4.6,4.6-12,4.6-16.6,0
	c-26-26-26-68.2,0-94.2l67.2-67.5c26-26,68.2-26,94.2,0s26,68.2,0,94.2l-66.7,66.7C332.1,282.5,330.7,272.6,327.7,263.2z
	 M1479.9,504.3c-1,0-2.1,0-3.1,0H379.5c89.1-42.7,150.7-133.8,150.7-239.2c0-105.4-61.5-196.3-150.5-239.1h1097.1
	c132.1-0.9,239.8,105.5,240.7,237.6C1718.4,395.7,1612,503.4,1479.9,504.3z"/>
</svg>
